<?xml version="1.0" standalone="no"?>
<!DOCTYPE svg PUBLIC "-//W3C//DTD SVG 20010904//EN"
 "http://www.w3.org/TR/2001/REC-SVG-20010904/DTD/svg10.dtd">
<svg version="1.0" xmlns="http://www.w3.org/2000/svg"
 width="700.000000pt" height="700.000000pt" viewBox="0 0 700.000000 700.000000"
 preserveAspectRatio="xMidYMid meet">
<metadata>
Created by potrace 1.11, written by Peter Selinger 2001-2013
</metadata>
<g transform="translate(0.000000,700.000000) scale(0.100000,-0.100000)"
fill="#000000" stroke="none">
<path d="M3298 6996 c-1 -2 -43 -6 -93 -10 -186 -12 -421 -54 -628 -110 -94
-26 -349 -113 -409 -139 -169 -76 -240 -110 -360 -175 -179 -97 -417 -261
-573 -396 -89 -76 -322 -310 -401 -401 -200 -232 -396 -543 -525 -834 l-55
-125 230 -134 c500 -290 613 -356 666 -385 30 -16 62 -36 71 -43 8 -8 18 -14
21 -14 3 0 142 -79 309 -176 167 -97 318 -184 334 -194 17 -9 75 -43 130 -75
55 -32 114 -66 130 -75 17 -10 129 -75 250 -145 121 -71 234 -136 250 -145 17
-9 67 -37 112 -63 73 -43 81 -50 78 -75 -2 -15 -6 -72 -9 -127 -4 -55 -8 -116
-11 -135 -2 -19 -7 -73 -10 -120 -3 -47 -7 -103 -9 -125 -2 -22 -7 -80 -11
-130 -3 -49 -8 -108 -10 -130 -6 -64 -18 -206 -30 -365 -8 -100 -15 -190 -20
-250 -3 -30 -7 -89 -10 -130 -3 -41 -7 -100 -10 -130 -3 -30 -7 -82 -10 -114
-3 -33 -7 -61 -9 -63 -2 -3 -76 37 -163 88 -361 210 -520 303 -563 327 -25 14
-73 43 -108 64 -34 21 -65 38 -68 38 -3 0 -18 8 -32 19 -15 10 -47 29 -72 43
-53 30 -673 391 -975 568 -115 67 -226 132 -245 143 -19 10 -119 68 -222 128
-103 60 -190 109 -194 109 -25 0 118 -603 156 -655 4 -5 10 -23 14 -40 13 -52
106 -265 178 -404 251 -487 624 -916 1075 -1239 274 -196 609 -367 921 -471
86 -29 296 -87 346 -97 11 -2 32 -6 46 -9 133 -26 152 -29 270 -45 189 -26
549 -34 740 -16 159 14 175 16 260 31 8 1 49 8 90 15 41 6 120 23 175 37 55
14 105 26 110 27 6 1 64 19 130 40 296 95 575 226 850 401 61 39 260 184 311
227 320 270 560 545 769 883 36 58 65 107 65 110 0 2 -12 2 -27 0 -16 -2 -68
-6 -118 -10 -49 -4 -106 -8 -125 -10 -19 -2 -71 -6 -115 -10 -44 -3 -96 -8
-115 -10 -19 -2 -75 -7 -125 -11 -49 -3 -97 -8 -106 -9 -9 -2 -65 -6 -125 -10
-60 -4 -112 -9 -116 -11 -4 -3 -36 11 -70 29 -35 19 -121 65 -193 102 -337
175 -425 221 -485 253 -36 18 -130 68 -210 109 -80 41 -194 101 -255 133 -60
32 -144 76 -185 97 -75 38 -75 39 -74 78 1 50 14 272 19 305 1 14 6 79 9 145
4 66 9 136 11 155 2 19 7 78 10 132 3 53 8 115 10 138 5 43 -22 129 -281 920
-40 123 -71 226 -69 228 3 3 315 -154 349 -176 6 -4 13 -7 16 -7 3 -1 37 -17
75 -37 188 -98 609 -314 680 -349 44 -22 159 -80 255 -130 446 -229 537 -274
560 -273 25 1 140 10 235 19 28 3 79 7 115 10 36 3 90 7 120 10 30 2 89 7 130
10 41 3 91 8 110 10 19 2 71 7 115 10 78 6 99 7 275 22 47 4 98 7 114 7 l29 1
-7 105 c-3 58 -8 119 -10 135 -3 17 -7 50 -10 75 -3 25 -7 55 -10 67 -2 11 -8
43 -11 70 -9 62 -61 291 -73 323 -5 14 -9 27 -9 30 1 15 -63 204 -110 325
-100 252 -224 485 -377 705 -56 81 -144 199 -156 210 -3 3 -30 34 -60 70 -296
353 -695 664 -1120 872 -118 58 -322 142 -420 173 -30 10 -71 23 -90 30 -68
24 -317 85 -407 99 -33 5 -116 19 -123 21 -3 1 -41 5 -85 10 -44 4 -89 10
-100 12 -26 4 -512 13 -517 9z m1670 -1713 c11 -21 31 -58 44 -83 222 -399
285 -514 311 -560 34 -62 50 -90 97 -173 18 -32 31 -60 29 -62 -2 -1 -58 26
-124 62 -66 35 -167 89 -225 120 -213 114 -205 108 -203 140 3 58 13 199 18
245 2 25 7 97 11 159 4 62 8 120 9 129 2 8 4 25 4 38 1 31 8 28 29 -15z
m-2363 -570 c70 -214 140 -426 155 -473 16 -46 28 -86 26 -88 -2 -2 -86 52
-186 120 l-182 122 6 86 c9 123 16 209 21 260 4 45 16 185 20 250 2 19 3 52 4
73 1 20 3 37 5 37 3 0 62 -174 131 -387z"/>
</g>
</svg>
