<?xml version="1.0" standalone="no"?>
<!DOCTYPE svg PUBLIC "-//W3C//DTD SVG 20010904//EN"
 "http://www.w3.org/TR/2001/REC-SVG-20010904/DTD/svg10.dtd">
<svg version="1.0" xmlns="http://www.w3.org/2000/svg"
 width="1020.000000pt" height="1020.000000pt" viewBox="0 0 1020.000000 1020.000000"
 preserveAspectRatio="xMidYMid meet">
<metadata>
Created by potrace 1.11, written by Peter Selinger 2001-2013
</metadata>
<g transform="translate(0.000000,1020.000000) scale(0.100000,-0.100000)"
fill="#000000" stroke="none">
<path d="M7163 7797 c0 -30 -9 -167 -18 -267 -2 -25 -7 -90 -11 -145 -4 -55
-8 -116 -9 -135 -3 -34 -16 -230 -19 -279 0 -14 7 -28 19 -35 11 -6 32 -19 47
-29 16 -10 28 -15 28 -11 0 4 8 0 18 -8 9 -9 58 -37 107 -63 50 -25 114 -60
143 -75 150 -82 261 -142 381 -206 24 -13 46 -24 48 -24 1 0 -10 24 -26 53
-17 28 -38 69 -48 90 -10 20 -21 37 -25 37 -5 0 -8 9 -8 19 0 11 -4 21 -8 23
-5 2 -30 44 -57 93 -26 50 -51 95 -55 100 -4 6 -29 51 -55 100 -26 50 -54 97
-61 106 -8 8 -14 19 -14 23 0 3 -33 66 -74 139 -66 118 -89 159 -146 262 -115
207 -143 256 -149 260 -4 2 -8 -10 -8 -28z"/>
<path d="M3674 7498 c-1 -24 -11 -169 -20 -273 -2 -34 -6 -90 -9 -125 -4 -62
-8 -117 -20 -275 -3 -38 -7 -101 -10 -140 -3 -38 -8 -93 -10 -122 -5 -49 -3
-52 28 -71 17 -11 126 -83 241 -161 115 -78 213 -141 217 -141 5 0 9 -4 9 -10
0 -5 7 -10 16 -10 10 0 12 5 7 13 -4 6 -8 17 -10 22 -1 6 -11 34 -22 63 -11
29 -20 55 -20 57 0 3 -33 105 -73 228 -39 122 -73 225 -74 230 -1 4 -3 9 -4
12 -1 3 -3 8 -5 13 -1 4 -4 14 -7 22 -4 8 -15 44 -27 80 -11 36 -39 121 -62
190 -23 69 -42 132 -44 140 -2 8 -4 16 -5 18 -2 1 -3 5 -5 10 -1 4 -4 14 -8
22 -11 30 -61 185 -63 199 -5 25 -20 32 -20 9z"/>
<path d="M189 7258 c-1 -18 -2 -44 -4 -58 -1 -14 -6 -72 -9 -130 -4 -58 -9
-130 -11 -160 -10 -114 -16 -197 -20 -255 -4 -77 -16 -230 -20 -275 -2 -19 -7
-87 -10 -150 -4 -63 -9 -123 -10 -132 -2 -9 -7 -66 -10 -125 -3 -59 -8 -128
-11 -153 -2 -25 -7 -83 -9 -130 -3 -47 -8 -110 -10 -140 -3 -30 -7 -93 -10
-140 -3 -47 -8 -107 -10 -135 -3 -27 -8 -84 -10 -125 -3 -41 -8 -102 -10 -135
-10 -125 -18 -242 -19 -294 l-1 -54 125 -73 c69 -41 134 -79 145 -84 11 -6 27
-14 35 -20 14 -9 135 -80 210 -123 19 -11 47 -27 62 -36 92 -55 193 -111 200
-111 4 0 8 -4 8 -9 0 -5 8 -11 18 -15 9 -3 31 -13 47 -23 17 -10 115 -67 218
-128 103 -60 209 -123 235 -138 26 -15 58 -33 72 -40 14 -6 27 -14 30 -17 4
-4 176 -105 264 -154 11 -6 25 -15 30 -19 6 -4 97 -57 201 -117 105 -60 199
-116 210 -125 10 -8 22 -15 27 -15 4 0 48 -25 98 -55 50 -30 95 -55 100 -55 6
0 10 -4 10 -10 0 -5 3 -9 8 -8 4 1 18 -5 32 -14 20 -13 528 -309 665 -388 17
-9 69 -40 117 -69 48 -28 91 -51 97 -51 6 0 11 -4 11 -10 0 -5 4 -10 9 -10 5
0 51 -25 102 -56 52 -31 101 -59 109 -62 8 -3 34 -18 57 -34 23 -15 46 -28 52
-28 6 0 11 -4 11 -10 0 -5 5 -10 11 -10 5 0 71 -36 145 -80 75 -44 138 -80
141 -80 3 0 18 -9 34 -21 16 -11 29 -19 30 -17 2 7 8 78 14 153 4 44 8 98 10
120 1 22 6 76 9 120 3 44 8 105 11 135 3 30 7 82 9 115 4 58 13 161 22 255 5
56 15 187 19 260 2 30 4 55 5 55 1 0 5 44 14 177 4 53 9 107 11 120 2 13 7 64
10 113 3 50 7 108 9 130 2 22 7 78 10 125 4 47 9 105 11 130 3 25 7 77 10 115
8 118 15 198 20 250 2 28 7 91 10 140 4 50 8 94 8 99 2 8 -67 52 -183 118 -25
14 -85 49 -135 78 -135 79 -203 118 -275 158 -25 13 -51 29 -58 35 -19 15 -95
57 -114 64 -10 3 -18 9 -18 14 0 5 -4 9 -9 9 -6 0 -60 29 -121 65 -61 36 -130
76 -153 89 -23 13 -94 54 -157 91 -63 37 -140 81 -170 97 -30 17 -67 39 -82
49 -14 11 -28 19 -31 19 -2 0 -67 37 -143 81 -76 45 -159 93 -184 107 -25 14
-78 45 -118 69 -41 24 -78 43 -83 43 -5 0 -9 5 -9 10 0 6 -4 10 -9 10 -5 0
-55 27 -111 60 -56 33 -104 60 -106 60 -2 0 -21 11 -42 23 -20 13 -50 32 -67
43 -16 10 -32 19 -35 19 -3 0 -39 20 -80 44 -41 25 -109 64 -150 88 -41 24
-84 49 -95 55 -47 27 -364 212 -408 239 -27 16 -50 29 -52 29 -3 0 -34 18 -70
40 -36 22 -68 40 -70 40 -3 0 -24 12 -48 27 -23 15 -62 38 -87 51 -25 14 -52
30 -60 36 -8 7 -33 21 -55 31 -22 11 -42 22 -45 25 -8 9 -219 130 -225 130 -4
0 -26 14 -50 30 -24 17 -48 30 -54 30 -6 0 -11 5 -11 10 0 6 -7 10 -15 10 -10
0 -15 -11 -16 -32z"/>
<path d="M5575 6693 c12 -32 125 -378 125 -385 0 -4 5 -19 12 -35 6 -15 12
-32 13 -38 3 -9 61 -187 155 -475 15 -47 56 -173 90 -280 34 -107 66 -204 70
-215 21 -52 36 -113 34 -140 -3 -64 -16 -263 -20 -315 -4 -54 -7 -96 -18 -255
-4 -44 -8 -114 -11 -155 -3 -41 -7 -100 -10 -130 -3 -30 -7 -91 -10 -135 -3
-44 -8 -125 -12 -180 -12 -180 -17 -162 57 -202 36 -19 144 -75 240 -125 96
-50 207 -108 245 -128 39 -21 142 -74 230 -120 88 -45 198 -103 245 -127 47
-25 155 -82 240 -126 85 -45 191 -100 235 -123 128 -67 200 -105 355 -184 80
-41 147 -77 150 -80 10 -10 67 -39 71 -36 2 2 45 7 94 11 50 3 106 8 125 10
19 2 78 6 130 9 52 4 106 8 120 11 14 2 61 6 105 10 90 6 162 12 250 20 57 4
147 12 260 20 28 2 75 6 105 9 30 3 87 8 125 11 39 3 95 7 125 10 53 4 142 12
245 20 28 2 86 7 130 11 44 3 81 7 82 8 2 2 10 75 18 171 3 39 8 86 10 105 2
19 7 69 10 110 4 41 8 93 10 115 8 78 15 156 20 208 3 28 7 79 10 112 4 33 8
85 10 115 2 30 7 79 10 110 8 72 15 142 20 210 2 30 6 78 9 105 6 55 14 140
21 225 3 30 7 81 11 113 3 32 7 79 9 105 2 26 6 72 10 102 3 30 8 81 10 113
10 119 15 173 20 217 3 25 7 70 9 100 3 30 8 87 11 125 4 39 8 90 9 114 l1 45
-60 -1 c-33 -1 -60 -3 -60 -3 0 -3 -38 -6 -142 -14 -50 -4 -106 -9 -123 -11
-17 -2 -70 -7 -118 -10 -48 -3 -103 -8 -122 -10 -19 -2 -71 -6 -115 -9 -44 -4
-100 -9 -125 -11 -25 -3 -74 -7 -110 -10 -36 -2 -94 -7 -130 -10 -105 -9 -160
-14 -245 -20 -44 -3 -98 -8 -120 -11 -22 -2 -75 -7 -118 -10 -43 -3 -96 -7
-118 -9 -168 -18 -209 -17 -245 4 -19 12 -41 21 -49 21 -7 0 -15 3 -17 8 -1 4
-77 45 -168 91 -91 46 -180 92 -197 103 -18 11 -33 16 -33 13 0 -4 -6 -3 -13
3 -13 11 -72 42 -532 277 -137 70 -333 171 -435 223 -102 52 -268 137 -370
189 -102 52 -191 99 -197 105 -7 6 -13 8 -13 5 0 -3 -37 15 -82 39 -45 24 -87
44 -94 44 -7 0 -14 3 -16 8 -1 4 -41 26 -88 50 -294 150 -359 182 -365 182 -4
0 -4 -8 0 -17z"/>
</g>
</svg>
