<?xml version="1.0" standalone="no"?>
<!DOCTYPE svg PUBLIC "-//W3C//DTD SVG 20010904//EN"
 "http://www.w3.org/TR/2001/REC-SVG-20010904/DTD/svg10.dtd">
<svg version="1.0" xmlns="http://www.w3.org/2000/svg"
 width="700.000000pt" height="700.000000pt" viewBox="0 0 700.000000 700.000000"
 preserveAspectRatio="xMidYMid meet">
<metadata>
Created by potrace 1.11, written by Peter Selinger 2001-2013
</metadata>
<g transform="translate(0.000000,700.000000) scale(0.100000,-0.100000)"
fill="#000000" stroke="none">
<path d="M3285 6994 c-203 -20 -276 -28 -375 -45 -610 -105 -1195 -376 -1665
-772 -95 -81 -310 -294 -394 -392 -468 -542 -742 -1176 -833 -1925 -17 -137
-17 -583 0 -720 69 -569 227 -1028 514 -1491 145 -236 311 -440 525 -649 204
-200 371 -332 592 -468 463 -287 922 -445 1491 -514 137 -17 583 -17 720 0
569 69 1028 227 1491 514 360 222 692 528 958 882 323 430 549 960 640 1501
38 223 46 327 46 585 0 258 -8 362 -46 585 -105 627 -382 1216 -800 1700 -84
98 -299 311 -394 392 -518 437 -1148 710 -1845 798 -117 15 -536 28 -625 19z
m1709 -2237 c109 -197 197 -359 195 -361 -4 -4 -456 237 -469 251 -5 4 0 127
10 273 11 146 20 267 20 270 0 7 13 -16 244 -433z m-2270 -117 c65 -195 125
-381 136 -413 12 -37 15 -55 7 -50 -7 3 -78 51 -159 105 -147 97 -148 99 -148
136 0 20 9 150 20 287 11 138 20 261 20 274 0 13 2 22 4 20 2 -2 56 -164 120
-359z m-999 -510 c649 -375 1184 -685 1188 -689 8 -8 -116 -1597 -125 -1607
-5 -5 -2422 1396 -2440 1414 -3 4 20 365 53 802 32 437 59 799 59 803 0 5 19
-2 43 -16 23 -13 573 -331 1222 -707z m3000 -112 l710 -365 585 48 c321 27
586 46 589 43 5 -5 -138 -1596 -145 -1603 -1 -2 -265 -25 -586 -52 -581 -49
-583 -49 -618 -30 -19 10 -303 159 -630 331 -327 171 -598 315 -602 318 -3 4
7 194 24 423 l30 415 -156 476 c-86 261 -156 478 -156 481 0 2 55 -24 123 -58
67 -35 442 -227 832 -427z"/>
</g>
</svg>
