<?xml version="1.0" encoding="utf-8"?>
<!-- Generator: Adobe Illustrator 21.1.0, SVG Export Plug-In . SVG Version: 6.00 Build 0)  -->
<svg version="1.1" id="Layer_1" xmlns="http://www.w3.org/2000/svg" xmlns:xlink="http://www.w3.org/1999/xlink" x="0px" y="0px"
	 viewBox="0 0 1024 380" style="enable-background:new 0 0 1024 380;" xml:space="preserve">
<style type="text/css">
	.st0{fill:#669999;}
	.st1{fill:#FFCCCC;}
	.st2{fill:#FFFF99;}
	.st3{fill:#FF6699;}
	.st4{fill:#FFFFFF;}
	.st5{fill:none;stroke:#00FFFF;stroke-width:3.2661;stroke-miterlimit:10;}
	.st6{opacity:0.2;}
</style>
<polygon class="st0" points="582.4,268.8 921.4,468.5 1071,204.1 732,4.4 "/>
<polygon class="st1" points="1298.5,447.9 -171.6,858.6 -522.9,-246.9 947.1,-657.7 "/>
<polygon points="1154.7,36.5 -125.4,163.1 -158,-109.5 1122.1,-236.2 "/>
<polygon class="st2" points="1472.6,822 186.9,755.6 204.8,166.6 1490.5,233.1 "/>
<polygon class="st3" points="-99,63.9 1166.7,296 1169.2,283.1 -96.5,51 "/>
<g>
	<g>
		<ellipse class="st4" cx="-391.3" cy="342.4" rx="8.6" ry="8.7"/>
		<ellipse class="st4" cx="-391.3" cy="374.2" rx="8.6" ry="8.7"/>
		<ellipse class="st4" cx="-391.3" cy="406.1" rx="8.6" ry="8.7"/>
		<ellipse class="st4" cx="-391.3" cy="437.9" rx="8.6" ry="8.7"/>
		<ellipse class="st4" cx="-391.3" cy="215" rx="8.6" ry="8.7"/>
		<ellipse class="st4" cx="-391.3" cy="246.9" rx="8.6" ry="8.7"/>
		<ellipse class="st4" cx="-391.3" cy="278.7" rx="8.6" ry="8.7"/>
		<ellipse class="st4" cx="-391.3" cy="310.6" rx="8.6" ry="8.7"/>
		<ellipse class="st4" cx="-391.3" cy="87.7" rx="8.6" ry="8.7"/>
		<ellipse class="st4" cx="-391.3" cy="119.5" rx="8.6" ry="8.7"/>
		<ellipse class="st4" cx="-391.3" cy="151.4" rx="8.6" ry="8.7"/>
		<ellipse class="st4" cx="-391.3" cy="183.2" rx="8.6" ry="8.7"/>
		<ellipse class="st4" cx="-391.3" cy="-39.7" rx="8.6" ry="8.7"/>
		<ellipse class="st4" cx="-391.3" cy="-7.8" rx="8.6" ry="8.7"/>
		<ellipse class="st4" cx="-391.3" cy="24" rx="8.6" ry="8.7"/>
		<ellipse class="st4" cx="-391.3" cy="55.8" rx="8.6" ry="8.7"/>
		<ellipse class="st4" cx="-357.5" cy="342.5" rx="8.6" ry="8.7"/>
		<ellipse class="st4" cx="-357.5" cy="374.3" rx="8.6" ry="8.7"/>
		<ellipse class="st4" cx="-357.5" cy="406.1" rx="8.6" ry="8.7"/>
		<ellipse class="st4" cx="-357.5" cy="438" rx="8.6" ry="8.7"/>
		<ellipse class="st4" cx="-357.5" cy="215.1" rx="8.6" ry="8.7"/>
		<ellipse class="st4" cx="-357.5" cy="246.9" rx="8.6" ry="8.7"/>
		<ellipse class="st4" cx="-357.5" cy="278.8" rx="8.6" ry="8.7"/>
		<ellipse class="st4" cx="-357.5" cy="310.6" rx="8.6" ry="8.7"/>
		<ellipse class="st4" cx="-357.5" cy="87.7" rx="8.6" ry="8.7"/>
		<ellipse class="st4" cx="-357.5" cy="119.6" rx="8.6" ry="8.7"/>
		<ellipse class="st4" cx="-357.5" cy="151.4" rx="8.6" ry="8.7"/>
		<ellipse class="st4" cx="-357.5" cy="183.2" rx="8.6" ry="8.7"/>
		<ellipse class="st4" cx="-357.5" cy="-39.6" rx="8.6" ry="8.7"/>
		<ellipse class="st4" cx="-357.5" cy="-7.8" rx="8.6" ry="8.7"/>
		<ellipse class="st4" cx="-357.5" cy="24" rx="8.6" ry="8.7"/>
		<ellipse class="st4" cx="-357.5" cy="55.9" rx="8.6" ry="8.7"/>
		<ellipse class="st4" cx="-323.9" cy="342.9" rx="8.6" ry="8.7"/>
		<ellipse class="st4" cx="-323.9" cy="374.7" rx="8.6" ry="8.7"/>
		<ellipse class="st4" cx="-323.9" cy="406.6" rx="8.6" ry="8.7"/>
		<ellipse class="st4" cx="-323.9" cy="438.4" rx="8.6" ry="8.7"/>
		<ellipse class="st4" cx="-323.9" cy="215.5" rx="8.6" ry="8.7"/>
		<ellipse class="st4" cx="-323.9" cy="247.4" rx="8.6" ry="8.7"/>
		<ellipse class="st4" cx="-323.9" cy="279.2" rx="8.6" ry="8.7"/>
		<ellipse class="st4" cx="-323.9" cy="311" rx="8.6" ry="8.7"/>
		<ellipse class="st4" cx="-323.9" cy="88.2" rx="8.6" ry="8.7"/>
		<ellipse class="st4" cx="-323.9" cy="120" rx="8.6" ry="8.7"/>
		<ellipse class="st4" cx="-323.9" cy="151.8" rx="8.6" ry="8.7"/>
		<ellipse class="st4" cx="-323.9" cy="183.7" rx="8.6" ry="8.7"/>
		<ellipse class="st4" cx="-323.9" cy="-39.2" rx="8.6" ry="8.7"/>
		<ellipse class="st4" cx="-323.9" cy="-7.4" rx="8.6" ry="8.7"/>
		<ellipse class="st4" cx="-323.9" cy="24.5" rx="8.6" ry="8.7"/>
		<ellipse class="st4" cx="-323.9" cy="56.3" rx="8.6" ry="8.7"/>
		<ellipse class="st4" cx="-290.1" cy="342.9" rx="8.6" ry="8.7"/>
		<ellipse class="st4" cx="-290.1" cy="374.8" rx="8.6" ry="8.7"/>
		<ellipse class="st4" cx="-290.1" cy="406.6" rx="8.6" ry="8.7"/>
		<ellipse class="st4" cx="-290.1" cy="438.5" rx="8.6" ry="8.7"/>
		<ellipse class="st4" cx="-290.1" cy="215.6" rx="8.6" ry="8.7"/>
		<ellipse class="st4" cx="-290.1" cy="247.4" rx="8.6" ry="8.7"/>
		<ellipse class="st4" cx="-290.1" cy="279.3" rx="8.6" ry="8.7"/>
		<ellipse class="st4" cx="-290.1" cy="311.1" rx="8.6" ry="8.7"/>
		<ellipse class="st4" cx="-290.1" cy="88.2" rx="8.6" ry="8.7"/>
		<ellipse class="st4" cx="-290.1" cy="120" rx="8.6" ry="8.7"/>
		<ellipse class="st4" cx="-290.1" cy="151.9" rx="8.6" ry="8.7"/>
		<ellipse class="st4" cx="-290.1" cy="183.7" rx="8.6" ry="8.7"/>
		<ellipse class="st4" cx="-290.1" cy="-39.2" rx="8.6" ry="8.7"/>
		<ellipse class="st4" cx="-290.1" cy="-7.3" rx="8.6" ry="8.7"/>
		<ellipse class="st4" cx="-290.1" cy="24.5" rx="8.6" ry="8.7"/>
		<ellipse class="st4" cx="-290.1" cy="56.4" rx="8.6" ry="8.7"/>
		<ellipse class="st4" cx="-458.5" cy="343" rx="8.6" ry="8.7"/>
		<ellipse class="st4" cx="-458.5" cy="374.8" rx="8.6" ry="8.7"/>
		<ellipse class="st4" cx="-458.5" cy="406.7" rx="8.6" ry="8.7"/>
		<ellipse class="st4" cx="-458.5" cy="438.5" rx="8.6" ry="8.7"/>
		<ellipse class="st4" cx="-458.5" cy="215.6" rx="8.6" ry="8.7"/>
		<ellipse class="st4" cx="-458.5" cy="247.5" rx="8.6" ry="8.7"/>
		<ellipse class="st4" cx="-458.5" cy="279.3" rx="8.6" ry="8.7"/>
		<ellipse class="st4" cx="-458.5" cy="311.2" rx="8.6" ry="8.7"/>
		<ellipse class="st4" cx="-458.5" cy="88.3" rx="8.6" ry="8.7"/>
		<ellipse class="st4" cx="-458.5" cy="120.1" rx="8.6" ry="8.7"/>
		<ellipse class="st4" cx="-458.5" cy="152" rx="8.6" ry="8.7"/>
		<ellipse class="st4" cx="-458.5" cy="183.8" rx="8.6" ry="8.7"/>
		<ellipse class="st4" cx="-458.5" cy="-39.1" rx="8.6" ry="8.7"/>
		<ellipse class="st4" cx="-458.5" cy="-7.2" rx="8.6" ry="8.7"/>
		<ellipse class="st4" cx="-458.5" cy="24.6" rx="8.6" ry="8.7"/>
		<ellipse class="st4" cx="-458.5" cy="56.4" rx="8.6" ry="8.7"/>
		<ellipse class="st4" cx="-424.6" cy="343.1" rx="8.6" ry="8.7"/>
		<ellipse class="st4" cx="-424.6" cy="374.9" rx="8.6" ry="8.7"/>
		<ellipse class="st4" cx="-424.6" cy="406.7" rx="8.6" ry="8.7"/>
		<ellipse class="st4" cx="-424.6" cy="438.6" rx="8.6" ry="8.7"/>
		<ellipse class="st4" cx="-424.6" cy="215.7" rx="8.6" ry="8.7"/>
		<ellipse class="st4" cx="-424.6" cy="247.5" rx="8.6" ry="8.7"/>
		<ellipse class="st4" cx="-424.6" cy="279.4" rx="8.6" ry="8.7"/>
		<ellipse class="st4" cx="-424.6" cy="311.2" rx="8.6" ry="8.7"/>
		<ellipse class="st4" cx="-424.6" cy="88.3" rx="8.6" ry="8.7"/>
		<ellipse class="st4" cx="-424.6" cy="120.2" rx="8.6" ry="8.7"/>
		<ellipse class="st4" cx="-424.6" cy="152" rx="8.6" ry="8.7"/>
		<ellipse class="st4" cx="-424.6" cy="183.9" rx="8.6" ry="8.7"/>
		<ellipse class="st4" cx="-424.6" cy="-39" rx="8.6" ry="8.7"/>
		<ellipse class="st4" cx="-424.6" cy="-7.2" rx="8.6" ry="8.7"/>
		<ellipse class="st4" cx="-424.6" cy="24.6" rx="8.6" ry="8.7"/>
		<ellipse class="st4" cx="-424.6" cy="56.5" rx="8.6" ry="8.7"/>
	</g>
	<g>
		<ellipse class="st4" cx="-594.1" cy="343" rx="8.6" ry="8.7"/>
		<ellipse class="st4" cx="-594.1" cy="374.8" rx="8.6" ry="8.7"/>
		<ellipse class="st4" cx="-594.1" cy="406.6" rx="8.6" ry="8.7"/>
		<ellipse class="st4" cx="-594.1" cy="438.5" rx="8.6" ry="8.7"/>
		<ellipse class="st4" cx="-594.1" cy="215.6" rx="8.6" ry="8.7"/>
		<ellipse class="st4" cx="-594.1" cy="247.4" rx="8.6" ry="8.7"/>
		<ellipse class="st4" cx="-594.1" cy="279.3" rx="8.6" ry="8.7"/>
		<ellipse class="st4" cx="-594.1" cy="311.1" rx="8.6" ry="8.7"/>
		<ellipse class="st4" cx="-594.1" cy="88.2" rx="8.6" ry="8.7"/>
		<ellipse class="st4" cx="-594.1" cy="120.1" rx="8.6" ry="8.7"/>
		<ellipse class="st4" cx="-594.1" cy="151.9" rx="8.6" ry="8.7"/>
		<ellipse class="st4" cx="-594.1" cy="183.7" rx="8.6" ry="8.7"/>
		<ellipse class="st4" cx="-594.1" cy="-39.1" rx="8.6" ry="8.7"/>
		<ellipse class="st4" cx="-594.1" cy="-7.3" rx="8.6" ry="8.7"/>
		<ellipse class="st4" cx="-594.1" cy="24.5" rx="8.6" ry="8.7"/>
		<ellipse class="st4" cx="-594.1" cy="56.4" rx="8.6" ry="8.7"/>
		<ellipse class="st4" cx="-560.3" cy="343" rx="8.6" ry="8.7"/>
		<ellipse class="st4" cx="-560.3" cy="374.8" rx="8.6" ry="8.7"/>
		<ellipse class="st4" cx="-560.3" cy="406.7" rx="8.6" ry="8.7"/>
		<ellipse class="st4" cx="-560.3" cy="438.5" rx="8.6" ry="8.7"/>
		<ellipse class="st4" cx="-560.3" cy="215.6" rx="8.6" ry="8.7"/>
		<ellipse class="st4" cx="-560.3" cy="247.5" rx="8.6" ry="8.7"/>
		<ellipse class="st4" cx="-560.3" cy="279.3" rx="8.6" ry="8.7"/>
		<ellipse class="st4" cx="-560.3" cy="311.2" rx="8.6" ry="8.7"/>
		<ellipse class="st4" cx="-560.3" cy="88.3" rx="8.6" ry="8.7"/>
		<ellipse class="st4" cx="-560.3" cy="120.1" rx="8.6" ry="8.7"/>
		<ellipse class="st4" cx="-560.3" cy="152" rx="8.6" ry="8.7"/>
		<ellipse class="st4" cx="-560.3" cy="183.8" rx="8.6" ry="8.7"/>
		<ellipse class="st4" cx="-560.3" cy="-39.1" rx="8.6" ry="8.7"/>
		<ellipse class="st4" cx="-560.3" cy="-7.3" rx="8.6" ry="8.7"/>
		<ellipse class="st4" cx="-560.3" cy="24.6" rx="8.6" ry="8.7"/>
		<ellipse class="st4" cx="-560.3" cy="56.4" rx="8.6" ry="8.7"/>
		<ellipse class="st4" cx="-526.7" cy="343.4" rx="8.6" ry="8.7"/>
		<ellipse class="st4" cx="-526.7" cy="375.3" rx="8.6" ry="8.7"/>
		<ellipse class="st4" cx="-526.7" cy="407.1" rx="8.6" ry="8.7"/>
		<ellipse class="st4" cx="-526.7" cy="439" rx="8.6" ry="8.7"/>
		<ellipse class="st4" cx="-526.7" cy="216.1" rx="8.6" ry="8.7"/>
		<ellipse class="st4" cx="-526.7" cy="247.9" rx="8.6" ry="8.7"/>
		<ellipse class="st4" cx="-526.7" cy="279.7" rx="8.6" ry="8.7"/>
		<ellipse class="st4" cx="-526.7" cy="311.6" rx="8.6" ry="8.7"/>
		<ellipse class="st4" cx="-526.7" cy="88.7" rx="8.6" ry="8.7"/>
		<ellipse class="st4" cx="-526.7" cy="120.5" rx="8.6" ry="8.7"/>
		<ellipse class="st4" cx="-526.7" cy="152.4" rx="8.6" ry="8.7"/>
		<ellipse class="st4" cx="-526.7" cy="184.2" rx="8.6" ry="8.7"/>
		<ellipse class="st4" cx="-526.7" cy="-38.7" rx="8.6" ry="8.7"/>
		<ellipse class="st4" cx="-526.7" cy="-6.8" rx="8.6" ry="8.7"/>
		<ellipse class="st4" cx="-526.7" cy="25" rx="8.6" ry="8.7"/>
		<ellipse class="st4" cx="-526.7" cy="56.9" rx="8.6" ry="8.7"/>
		<ellipse class="st4" cx="-492.9" cy="343.5" rx="8.6" ry="8.7"/>
		<ellipse class="st4" cx="-492.9" cy="375.3" rx="8.6" ry="8.7"/>
		<ellipse class="st4" cx="-492.9" cy="407.2" rx="8.6" ry="8.7"/>
		<ellipse class="st4" cx="-492.9" cy="439" rx="8.6" ry="8.7"/>
		<ellipse class="st4" cx="-492.9" cy="216.1" rx="8.6" ry="8.7"/>
		<ellipse class="st4" cx="-492.9" cy="248" rx="8.6" ry="8.7"/>
		<ellipse class="st4" cx="-492.9" cy="279.8" rx="8.6" ry="8.7"/>
		<ellipse class="st4" cx="-492.9" cy="311.6" rx="8.6" ry="8.7"/>
		<ellipse class="st4" cx="-492.9" cy="88.8" rx="8.6" ry="8.7"/>
		<ellipse class="st4" cx="-492.9" cy="120.6" rx="8.6" ry="8.7"/>
		<ellipse class="st4" cx="-492.9" cy="152.4" rx="8.6" ry="8.7"/>
		<ellipse class="st4" cx="-492.9" cy="184.3" rx="8.6" ry="8.7"/>
		<ellipse class="st4" cx="-492.9" cy="-38.6" rx="8.6" ry="8.7"/>
		<ellipse class="st4" cx="-492.9" cy="-6.8" rx="8.6" ry="8.7"/>
		<ellipse class="st4" cx="-492.9" cy="25.1" rx="8.6" ry="8.7"/>
		<ellipse class="st4" cx="-492.9" cy="56.9" rx="8.6" ry="8.7"/>
		<ellipse class="st4" cx="-661.3" cy="343.6" rx="8.6" ry="8.7"/>
		<ellipse class="st4" cx="-661.3" cy="375.4" rx="8.6" ry="8.7"/>
		<ellipse class="st4" cx="-661.3" cy="407.2" rx="8.6" ry="8.7"/>
		<ellipse class="st4" cx="-661.3" cy="439.1" rx="8.6" ry="8.7"/>
		<ellipse class="st4" cx="-661.3" cy="216.2" rx="8.6" ry="8.7"/>
		<ellipse class="st4" cx="-661.3" cy="248" rx="8.6" ry="8.7"/>
		<ellipse class="st4" cx="-661.3" cy="279.9" rx="8.6" ry="8.7"/>
		<ellipse class="st4" cx="-661.3" cy="311.7" rx="8.6" ry="8.7"/>
		<ellipse class="st4" cx="-661.3" cy="88.8" rx="8.6" ry="8.7"/>
		<ellipse class="st4" cx="-661.3" cy="120.7" rx="8.6" ry="8.7"/>
		<ellipse class="st4" cx="-661.3" cy="152.5" rx="8.6" ry="8.7"/>
		<ellipse class="st4" cx="-661.3" cy="184.4" rx="8.6" ry="8.7"/>
		<ellipse class="st4" cx="-661.3" cy="-38.5" rx="8.6" ry="8.7"/>
		<ellipse class="st4" cx="-661.3" cy="-6.7" rx="8.6" ry="8.7"/>
		<ellipse class="st4" cx="-661.3" cy="25.1" rx="8.6" ry="8.7"/>
		<ellipse class="st4" cx="-661.3" cy="57" rx="8.6" ry="8.7"/>
		<ellipse class="st4" cx="-627.4" cy="343.6" rx="8.6" ry="8.7"/>
		<ellipse class="st4" cx="-627.4" cy="375.4" rx="8.6" ry="8.7"/>
		<ellipse class="st4" cx="-627.4" cy="407.3" rx="8.6" ry="8.7"/>
		<ellipse class="st4" cx="-627.4" cy="439.1" rx="8.6" ry="8.7"/>
		<ellipse class="st4" cx="-627.4" cy="216.2" rx="8.6" ry="8.7"/>
		<ellipse class="st4" cx="-627.4" cy="248.1" rx="8.6" ry="8.7"/>
		<ellipse class="st4" cx="-627.4" cy="279.9" rx="8.6" ry="8.7"/>
		<ellipse class="st4" cx="-627.4" cy="311.8" rx="8.6" ry="8.7"/>
		<ellipse class="st4" cx="-627.4" cy="88.9" rx="8.6" ry="8.7"/>
		<ellipse class="st4" cx="-627.4" cy="120.7" rx="8.6" ry="8.7"/>
		<ellipse class="st4" cx="-627.4" cy="152.6" rx="8.6" ry="8.7"/>
		<ellipse class="st4" cx="-627.4" cy="184.4" rx="8.6" ry="8.7"/>
		<ellipse class="st4" cx="-627.4" cy="-38.5" rx="8.6" ry="8.7"/>
		<ellipse class="st4" cx="-627.4" cy="-6.6" rx="8.6" ry="8.7"/>
		<ellipse class="st4" cx="-627.4" cy="25.2" rx="8.6" ry="8.7"/>
		<ellipse class="st4" cx="-627.4" cy="57" rx="8.6" ry="8.7"/>
	</g>
</g>
<g>
	<g>
		<path class="st4" d="M96.2,480.3c-1.7,3-5.5,3.9-8.4,2.1s-3.8-5.6-2.1-8.6c1.7-3,5.5-3.9,8.4-2.1S98,477.3,96.2,480.3z"/>
		<path class="st4" d="M84.8,499.8c-1.7,3-5.5,3.9-8.4,2.1c-2.9-1.8-3.8-5.6-2.1-8.6c1.7-3,5.5-3.9,8.4-2.1
			C85.6,493,86.5,496.8,84.8,499.8z"/>
		<path class="st4" d="M73.3,519.2c-1.7,3-5.5,3.9-8.4,2.1c-2.9-1.8-3.8-5.6-2.1-8.6c1.7-3,5.5-3.9,8.4-2.1
			C74.1,512.5,75.1,516.3,73.3,519.2z"/>
		<path class="st4" d="M61.9,538.7c-1.7,3-5.5,3.9-8.4,2.1s-3.8-5.6-2.1-8.6c1.7-3,5.5-3.9,8.4-2.1
			C62.7,531.9,63.6,535.8,61.9,538.7z"/>
		<path class="st4" d="M142.1,402.4c-1.7,3-5.5,3.9-8.4,2.1s-3.8-5.6-2.1-8.6c1.7-3,5.5-3.9,8.4-2.1
			C142.9,395.6,143.8,399.4,142.1,402.4z"/>
		<path class="st4" d="M130.6,421.8c-1.7,3-5.5,3.9-8.4,2.1c-2.9-1.8-3.8-5.6-2.1-8.6c1.7-3,5.5-3.9,8.4-2.1
			C131.4,415.1,132.4,418.9,130.6,421.8z"/>
		<path class="st4" d="M119.2,441.3c-1.7,3-5.5,3.9-8.4,2.1c-2.9-1.8-3.8-5.6-2.1-8.6c1.7-3,5.5-3.9,8.4-2.1
			C120,434.5,120.9,438.4,119.2,441.3z"/>
		<path class="st4" d="M107.7,460.8c-1.7,3-5.5,3.9-8.4,2.1c-2.9-1.8-3.8-5.6-2.1-8.6c1.7-3,5.5-3.9,8.4-2.1
			C108.5,454,109.4,457.8,107.7,460.8z"/>
		<path class="st4" d="M187.9,324.4c-1.7,3-5.5,3.9-8.4,2.1c-2.9-1.8-3.8-5.6-2.1-8.6s5.5-3.9,8.4-2.1S189.7,321.5,187.9,324.4z"/>
		<path class="st4" d="M176.5,343.9c-1.7,3-5.5,3.9-8.4,2.1c-2.9-1.8-3.8-5.6-2.1-8.6c1.7-3,5.5-3.9,8.4-2.1
			C177.3,337.1,178.2,341,176.5,343.9z"/>
		<path class="st4" d="M165,363.4c-1.7,3-5.5,3.9-8.4,2.1c-2.9-1.8-3.8-5.6-2.1-8.6c1.7-3,5.5-3.9,8.4-2.1S166.7,360.4,165,363.4z"
			/>
		<path class="st4" d="M153.5,382.9c-1.7,3-5.5,3.9-8.4,2.1c-2.9-1.8-3.8-5.6-2.1-8.6c1.7-3,5.5-3.9,8.4-2.1
			C154.3,376.1,155.3,379.9,153.5,382.9z"/>
		<path class="st4" d="M233.8,246.5c-1.7,3-5.5,3.9-8.4,2.1s-3.8-5.6-2.1-8.6c1.7-3,5.5-3.9,8.4-2.1
			C234.6,239.7,235.5,243.6,233.8,246.5z"/>
		<path class="st4" d="M222.3,266c-1.7,3-5.5,3.9-8.4,2.1s-3.8-5.6-2.1-8.6c1.7-3,5.5-3.9,8.4-2.1C223.1,259.2,224,263,222.3,266z"
			/>
		<path class="st4" d="M210.8,285.5c-1.7,3-5.5,3.9-8.4,2.1s-3.8-5.6-2.1-8.6c1.7-3,5.5-3.9,8.4-2.1
			C211.6,278.7,212.6,282.5,210.8,285.5z"/>
		<path class="st4" d="M199.4,305c-1.7,3-5.5,3.9-8.4,2.1c-2.9-1.8-3.8-5.6-2.1-8.6c1.7-3,5.5-3.9,8.4-2.1
			C200.2,298.2,201.1,302,199.4,305z"/>
		<path class="st4" d="M116.9,493c-1.7,3-5.5,3.9-8.4,2.1s-3.8-5.6-2.1-8.6c1.7-3,5.5-3.9,8.4-2.1C117.7,486.2,118.7,490,116.9,493z
			"/>
		<path class="st4" d="M105.5,512.5c-1.7,3-5.5,3.9-8.4,2.1c-2.9-1.8-3.8-5.6-2.1-8.6c1.7-3,5.5-3.9,8.4-2.1
			C106.3,505.7,107.2,509.5,105.5,512.5z"/>
		<path class="st4" d="M94,532c-1.7,3-5.5,3.9-8.4,2.1c-2.9-1.8-3.8-5.6-2.1-8.6c1.7-3,5.5-3.9,8.4-2.1C94.8,525.2,95.8,529,94,532z
			"/>
		<path class="st4" d="M82.6,551.4c-1.7,3-5.5,3.9-8.4,2.1c-2.9-1.8-3.8-5.6-2.1-8.6c1.7-3,5.5-3.9,8.4-2.1
			C83.4,544.7,84.3,548.5,82.6,551.4z"/>
		<path class="st4" d="M162.8,415.1c-1.7,3-5.5,3.9-8.4,2.1c-2.9-1.8-3.8-5.6-2.1-8.6s5.5-3.9,8.4-2.1S164.5,412.1,162.8,415.1z"/>
		<path class="st4" d="M151.3,434.6c-1.7,3-5.5,3.9-8.4,2.1c-2.9-1.8-3.8-5.6-2.1-8.6c1.7-3,5.5-3.9,8.4-2.1
			C152.1,427.8,153.1,431.6,151.3,434.6z"/>
		<path class="st4" d="M139.9,454c-1.7,3-5.5,3.9-8.4,2.1c-2.9-1.8-3.8-5.6-2.1-8.6c1.7-3,5.5-3.9,8.4-2.1S141.6,451.1,139.9,454z"
			/>
		<path class="st4" d="M128.4,473.5c-1.7,3-5.5,3.9-8.4,2.1c-2.9-1.8-3.8-5.6-2.1-8.6s5.5-3.9,8.4-2.1
			C129.2,466.7,130.1,470.6,128.4,473.5z"/>
		<path class="st4" d="M208.6,337.2c-1.7,3-5.5,3.9-8.4,2.1c-2.9-1.8-3.8-5.6-2.1-8.6c1.7-3,5.5-3.9,8.4-2.1
			C209.4,330.4,210.4,334.2,208.6,337.2z"/>
		<path class="st4" d="M197.2,356.6c-1.7,3-5.5,3.9-8.4,2.1s-3.8-5.6-2.1-8.6c1.7-3,5.5-3.9,8.4-2.1
			C198,349.9,198.9,353.7,197.2,356.6z"/>
		<path class="st4" d="M185.7,376.1c-1.7,3-5.5,3.9-8.4,2.1s-3.8-5.6-2.1-8.6c1.7-3,5.5-3.9,8.4-2.1
			C186.5,369.3,187.4,373.2,185.7,376.1z"/>
		<path class="st4" d="M174.2,395.6c-1.7,3-5.5,3.9-8.4,2.1c-2.9-1.8-3.8-5.6-2.1-8.6c1.7-3,5.5-3.9,8.4-2.1
			C175,388.8,176,392.6,174.2,395.6z"/>
		<path class="st4" d="M254.5,259.2c-1.7,3-5.5,3.9-8.4,2.1c-2.9-1.8-3.8-5.6-2.1-8.6c1.7-3,5.5-3.9,8.4-2.1
			C255.3,252.5,256.2,256.3,254.5,259.2z"/>
		<path class="st4" d="M243,278.7c-1.7,3-5.5,3.9-8.4,2.1c-2.9-1.8-3.8-5.6-2.1-8.6c1.7-3,5.5-3.9,8.4-2.1S244.7,275.8,243,278.7z"
			/>
		<path class="st4" d="M231.5,298.2c-1.7,3-5.5,3.9-8.4,2.1c-2.9-1.8-3.8-5.6-2.1-8.6c1.7-3,5.5-3.9,8.4-2.1
			C232.3,291.4,233.3,295.2,231.5,298.2z"/>
		<path class="st4" d="M220.1,317.7c-1.7,3-5.5,3.9-8.4,2.1c-2.9-1.8-3.8-5.6-2.1-8.6c1.7-3,5.5-3.9,8.4-2.1
			S221.8,314.7,220.1,317.7z"/>
		<path class="st4" d="M137.3,505.8c-1.7,3-5.5,3.9-8.4,2.1c-2.9-1.8-3.8-5.6-2.1-8.6c1.7-3,5.5-3.9,8.4-2.1S139,502.9,137.3,505.8z
			"/>
		<path class="st4" d="M125.8,525.3c-1.7,3-5.5,3.9-8.4,2.1c-2.9-1.8-3.8-5.6-2.1-8.6s5.5-3.9,8.4-2.1
			C126.6,518.5,127.6,522.3,125.8,525.3z"/>
		<path class="st4" d="M114.4,544.8c-1.7,3-5.5,3.9-8.4,2.1c-2.9-1.8-3.8-5.6-2.1-8.6c1.7-3,5.5-3.9,8.4-2.1
			C115.2,538,116.1,541.8,114.4,544.8z"/>
		<path class="st4" d="M102.9,564.3c-1.7,3-5.5,3.9-8.4,2.1s-3.8-5.6-2.1-8.6c1.7-3,5.5-3.9,8.4-2.1
			C103.7,557.5,104.7,561.3,102.9,564.3z"/>
		<path class="st4" d="M183.1,427.9c-1.7,3-5.5,3.9-8.4,2.1s-3.8-5.6-2.1-8.6c1.7-3,5.5-3.9,8.4-2.1
			C183.9,421.1,184.9,424.9,183.1,427.9z"/>
		<path class="st4" d="M171.7,447.4c-1.7,3-5.5,3.9-8.4,2.1c-2.9-1.8-3.8-5.6-2.1-8.6c1.7-3,5.5-3.9,8.4-2.1
			C172.5,440.6,173.4,444.4,171.7,447.4z"/>
		<path class="st4" d="M160.2,466.9c-1.7,3-5.5,3.9-8.4,2.1c-2.9-1.8-3.8-5.6-2.1-8.6s5.5-3.9,8.4-2.1S162,463.9,160.2,466.9z"/>
		<path class="st4" d="M148.8,486.3c-1.7,3-5.5,3.9-8.4,2.1c-2.9-1.8-3.8-5.6-2.1-8.6s5.5-3.9,8.4-2.1
			C149.6,479.6,150.5,483.4,148.8,486.3z"/>
		<path class="st4" d="M229,350c-1.7,3-5.5,3.9-8.4,2.1c-2.9-1.8-3.8-5.6-2.1-8.6s5.5-3.9,8.4-2.1S230.7,347,229,350z"/>
		<path class="st4" d="M217.5,369.5c-1.7,3-5.5,3.9-8.4,2.1c-2.9-1.8-3.8-5.6-2.1-8.6c1.7-3,5.5-3.9,8.4-2.1
			S219.3,366.5,217.5,369.5z"/>
		<path class="st4" d="M206.1,388.9c-1.7,3-5.5,3.9-8.4,2.1c-2.9-1.8-3.8-5.6-2.1-8.6c1.7-3,5.5-3.9,8.4-2.1
			C206.9,382.2,207.8,386,206.1,388.9z"/>
		<path class="st4" d="M194.6,408.4c-1.7,3-5.5,3.9-8.4,2.1c-2.9-1.8-3.8-5.6-2.1-8.6c1.7-3,5.5-3.9,8.4-2.1
			C195.4,401.6,196.3,405.5,194.6,408.4z"/>
		<path class="st4" d="M274.8,272.1c-1.7,3-5.5,3.9-8.4,2.1c-2.9-1.8-3.8-5.6-2.1-8.6c1.7-3,5.5-3.9,8.4-2.1
			C275.6,265.3,276.6,269.1,274.8,272.1z"/>
		<path class="st4" d="M263.4,291.5c-1.7,3-5.5,3.9-8.4,2.1s-3.8-5.6-2.1-8.6c1.7-3,5.5-3.9,8.4-2.1
			C264.2,284.8,265.1,288.6,263.4,291.5z"/>
		<path class="st4" d="M251.9,311c-1.7,3-5.5,3.9-8.4,2.1c-2.9-1.8-3.8-5.6-2.1-8.6s5.5-3.9,8.4-2.1
			C252.7,304.2,253.6,308.1,251.9,311z"/>
		<path class="st4" d="M240.4,330.5c-1.7,3-5.5,3.9-8.4,2.1c-2.9-1.8-3.8-5.6-2.1-8.6c1.7-3,5.5-3.9,8.4-2.1
			S242.2,327.6,240.4,330.5z"/>
		<path class="st4" d="M158,518.5c-1.7,3-5.5,3.9-8.4,2.1s-3.8-5.6-2.1-8.6c1.7-3,5.5-3.9,8.4-2.1
			C158.8,511.8,159.7,515.6,158,518.5z"/>
		<path class="st4" d="M146.5,538c-1.7,3-5.5,3.9-8.4,2.1c-2.9-1.8-3.8-5.6-2.1-8.6s5.5-3.9,8.4-2.1
			C147.3,531.2,148.3,535.1,146.5,538z"/>
		<path class="st4" d="M135.1,557.5c-1.7,3-5.5,3.9-8.4,2.1c-2.9-1.8-3.8-5.6-2.1-8.6s5.5-3.9,8.4-2.1
			C135.9,550.7,136.8,554.5,135.1,557.5z"/>
		<path class="st4" d="M123.6,577c-1.7,3-5.5,3.9-8.4,2.1c-2.9-1.8-3.8-5.6-2.1-8.6c1.7-3,5.5-3.9,8.4-2.1
			C124.4,570.2,125.3,574,123.6,577z"/>
		<path class="st4" d="M203.8,440.6c-1.7,3-5.5,3.9-8.4,2.1c-2.9-1.8-3.8-5.6-2.1-8.6s5.5-3.9,8.4-2.1S205.6,437.7,203.8,440.6z"/>
		<path class="st4" d="M192.4,460.1c-1.7,3-5.5,3.9-8.4,2.1c-2.9-1.8-3.8-5.6-2.1-8.6c1.7-3,5.5-3.9,8.4-2.1
			C193.2,453.3,194.1,457.1,192.4,460.1z"/>
		<path class="st4" d="M180.9,479.6c-1.7,3-5.5,3.9-8.4,2.1c-2.9-1.8-3.8-5.6-2.1-8.6c1.7-3,5.5-3.9,8.4-2.1
			C181.7,472.8,182.6,476.6,180.9,479.6z"/>
		<path class="st4" d="M169.5,499.1c-1.7,3-5.5,3.9-8.4,2.1c-2.9-1.8-3.8-5.6-2.1-8.6c1.7-3,5.5-3.9,8.4-2.1
			C170.3,492.3,171.2,496.1,169.5,499.1z"/>
		<path class="st4" d="M249.7,362.7c-1.7,3-5.5,3.9-8.4,2.1c-2.9-1.8-3.8-5.6-2.1-8.6c1.7-3,5.5-3.9,8.4-2.1
			C250.5,355.9,251.4,359.7,249.7,362.7z"/>
		<path class="st4" d="M238.2,382.2c-1.7,3-5.5,3.9-8.4,2.1s-3.8-5.6-2.1-8.6c1.7-3,5.5-3.9,8.4-2.1
			C239,375.4,240,379.2,238.2,382.2z"/>
		<path class="st4" d="M226.8,401.7c-1.7,3-5.5,3.9-8.4,2.1c-2.9-1.8-3.8-5.6-2.1-8.6s5.5-3.9,8.4-2.1
			C227.6,394.9,228.5,398.7,226.8,401.7z"/>
		<path class="st4" d="M215.3,421.1c-1.7,3-5.5,3.9-8.4,2.1c-2.9-1.8-3.8-5.6-2.1-8.6c1.7-3,5.5-3.9,8.4-2.1S217,418.2,215.3,421.1z
			"/>
		<path class="st4" d="M295.5,284.8c-1.7,3-5.5,3.9-8.4,2.1c-2.9-1.8-3.8-5.6-2.1-8.6c1.7-3,5.5-3.9,8.4-2.1
			C296.3,278,297.3,281.8,295.5,284.8z"/>
		<path class="st4" d="M284.1,304.3c-1.7,3-5.5,3.9-8.4,2.1c-2.9-1.8-3.8-5.6-2.1-8.6c1.7-3,5.5-3.9,8.4-2.1
			C284.9,297.5,285.8,301.3,284.1,304.3z"/>
		<path class="st4" d="M272.6,323.7c-1.7,3-5.5,3.9-8.4,2.1c-2.9-1.8-3.8-5.6-2.1-8.6c1.7-3,5.5-3.9,8.4-2.1
			C273.4,317,274.3,320.8,272.6,323.7z"/>
		<path class="st4" d="M261.1,343.2c-1.7,3-5.5,3.9-8.4,2.1c-2.9-1.8-3.8-5.6-2.1-8.6c1.7-3,5.5-3.9,8.4-2.1
			C261.9,336.4,262.9,340.3,261.1,343.2z"/>
		<path class="st4" d="M54.9,455.5c-1.7,3-5.5,3.9-8.4,2.1c-2.9-1.8-3.8-5.6-2.1-8.6c1.7-3,5.5-3.9,8.4-2.1
			C55.7,448.7,56.7,452.5,54.9,455.5z"/>
		<path class="st4" d="M43.5,475c-1.7,3-5.5,3.9-8.4,2.1c-2.9-1.8-3.8-5.6-2.1-8.6c1.7-3,5.5-3.9,8.4-2.1
			C44.3,468.2,45.2,472,43.5,475z"/>
		<path class="st4" d="M32,494.4c-1.7,3-5.5,3.9-8.4,2.1s-3.8-5.6-2.1-8.6c1.7-3,5.5-3.9,8.4-2.1S33.8,491.5,32,494.4z"/>
		<path class="st4" d="M20.6,513.9c-1.7,3-5.5,3.9-8.4,2.1c-2.9-1.8-3.8-5.6-2.1-8.6s5.5-3.9,8.4-2.1
			C21.4,507.1,22.3,511,20.6,513.9z"/>
		<path class="st4" d="M100.8,377.6c-1.7,3-5.5,3.9-8.4,2.1c-2.9-1.8-3.8-5.6-2.1-8.6c1.7-3,5.5-3.9,8.4-2.1
			C101.6,370.8,102.5,374.6,100.8,377.6z"/>
		<path class="st4" d="M89.3,397c-1.7,3-5.5,3.9-8.4,2.1c-2.9-1.8-3.8-5.6-2.1-8.6c1.7-3,5.5-3.9,8.4-2.1
			C90.1,390.3,91.1,394.1,89.3,397z"/>
		<path class="st4" d="M77.9,416.5c-1.7,3-5.5,3.9-8.4,2.1c-2.9-1.8-3.8-5.6-2.1-8.6c1.7-3,5.5-3.9,8.4-2.1
			C78.7,409.7,79.6,413.6,77.9,416.5z"/>
		<path class="st4" d="M66.4,436c-1.7,3-5.5,3.9-8.4,2.1s-3.8-5.6-2.1-8.6s5.5-3.9,8.4-2.1C67.2,429.2,68.1,433,66.4,436z"/>
		<path class="st4" d="M146.6,299.6c-1.7,3-5.5,3.9-8.4,2.1c-2.9-1.8-3.8-5.6-2.1-8.6c1.7-3,5.5-3.9,8.4-2.1
			C147.4,292.9,148.4,296.7,146.6,299.6z"/>
		<path class="st4" d="M135.2,319.1c-1.7,3-5.5,3.9-8.4,2.1c-2.9-1.8-3.8-5.6-2.1-8.6c1.7-3,5.5-3.9,8.4-2.1
			C136,312.3,136.9,316.2,135.2,319.1z"/>
		<path class="st4" d="M123.7,338.6c-1.7,3-5.5,3.9-8.4,2.1c-2.9-1.8-3.8-5.6-2.1-8.6c1.7-3,5.5-3.9,8.4-2.1
			C124.5,331.8,125.4,335.7,123.7,338.6z"/>
		<path class="st4" d="M112.2,358.1c-1.7,3-5.5,3.9-8.4,2.1c-2.9-1.8-3.8-5.6-2.1-8.6c1.7-3,5.5-3.9,8.4-2.1S114,355.1,112.2,358.1z
			"/>
		<path class="st4" d="M192.5,221.7c-1.7,3-5.5,3.9-8.4,2.1c-2.9-1.8-3.8-5.6-2.1-8.6c1.7-3,5.5-3.9,8.4-2.1
			S194.2,218.8,192.5,221.7z"/>
		<path class="st4" d="M181,241.2c-1.7,3-5.5,3.9-8.4,2.1c-2.9-1.8-3.8-5.6-2.1-8.6c1.7-3,5.5-3.9,8.4-2.1
			C181.8,234.4,182.7,238.3,181,241.2z"/>
		<path class="st4" d="M169.5,260.7c-1.7,3-5.5,3.9-8.4,2.1c-2.9-1.8-3.8-5.6-2.1-8.6c1.7-3,5.5-3.9,8.4-2.1
			C170.3,253.9,171.3,257.7,169.5,260.7z"/>
		<path class="st4" d="M158.1,280.2c-1.7,3-5.5,3.9-8.4,2.1s-3.8-5.6-2.1-8.6c1.7-3,5.5-3.9,8.4-2.1
			C158.9,273.4,159.8,277.2,158.1,280.2z"/>
		<path class="st4" d="M75.6,468.2c-1.7,3-5.5,3.9-8.4,2.1c-2.9-1.8-3.8-5.6-2.1-8.6c1.7-3,5.5-3.9,8.4-2.1
			C76.4,461.4,77.4,465.2,75.6,468.2z"/>
		<path class="st4" d="M64.2,487.7c-1.7,3-5.5,3.9-8.4,2.1s-3.8-5.6-2.1-8.6c1.7-3,5.5-3.9,8.4-2.1S65.9,484.7,64.2,487.7z"/>
		<path class="st4" d="M52.7,507.2c-1.7,3-5.5,3.9-8.4,2.1c-2.9-1.8-3.8-5.6-2.1-8.6c1.7-3,5.5-3.9,8.4-2.1
			C53.5,500.4,54.4,504.2,52.7,507.2z"/>
		<path class="st4" d="M41.3,526.6c-1.7,3-5.5,3.9-8.4,2.1c-2.9-1.8-3.8-5.6-2.1-8.6s5.5-3.9,8.4-2.1C42,519.9,43,523.7,41.3,526.6z
			"/>
		<path class="st4" d="M121.5,390.3c-1.7,3-5.5,3.9-8.4,2.1c-2.9-1.8-3.8-5.6-2.1-8.6c1.7-3,5.5-3.9,8.4-2.1
			S123.2,387.3,121.5,390.3z"/>
		<path class="st4" d="M110,409.8c-1.7,3-5.5,3.9-8.4,2.1c-2.9-1.8-3.8-5.6-2.1-8.6c1.7-3,5.5-3.9,8.4-2.1
			C110.8,403,111.7,406.8,110,409.8z"/>
		<path class="st4" d="M98.6,429.2c-1.7,3-5.5,3.9-8.4,2.1c-2.9-1.8-3.8-5.6-2.1-8.6c1.7-3,5.5-3.9,8.4-2.1
			C99.4,422.5,100.3,426.3,98.6,429.2z"/>
		<path class="st4" d="M87.1,448.7c-1.7,3-5.5,3.9-8.4,2.1c-2.9-1.8-3.8-5.6-2.1-8.6c1.7-3,5.5-3.9,8.4-2.1S88.8,445.8,87.1,448.7z"
			/>
		<path class="st4" d="M167.3,312.4c-1.7,3-5.5,3.9-8.4,2.1c-2.9-1.8-3.8-5.6-2.1-8.6c1.7-3,5.5-3.9,8.4-2.1S169,309.4,167.3,312.4z
			"/>
		<path class="st4" d="M155.9,331.8c-1.7,3-5.5,3.9-8.4,2.1c-2.9-1.8-3.8-5.6-2.1-8.6c1.7-3,5.5-3.9,8.4-2.1
			S157.6,328.9,155.9,331.8z"/>
		<path class="st4" d="M144.4,351.3c-1.7,3-5.5,3.9-8.4,2.1c-2.9-1.8-3.8-5.6-2.1-8.6c1.7-3,5.5-3.9,8.4-2.1
			C145.2,344.5,146.1,348.4,144.4,351.3z"/>
		<path class="st4" d="M132.9,370.8c-1.7,3-5.5,3.9-8.4,2.1c-2.9-1.8-3.8-5.6-2.1-8.6c1.7-3,5.5-3.9,8.4-2.1
			C133.7,364,134.7,367.8,132.9,370.8z"/>
		<path class="st4" d="M213.2,234.4c-1.7,3-5.5,3.9-8.4,2.1s-3.8-5.6-2.1-8.6c1.7-3,5.5-3.9,8.4-2.1
			C214,227.7,214.9,231.5,213.2,234.4z"/>
		<path class="st4" d="M201.7,253.9c-1.7,3-5.5,3.9-8.4,2.1c-2.9-1.8-3.8-5.6-2.1-8.6c1.7-3,5.5-3.9,8.4-2.1
			C202.5,247.1,203.4,251,201.7,253.9z"/>
		<path class="st4" d="M190.2,273.4c-1.7,3-5.5,3.9-8.4,2.1s-3.8-5.6-2.1-8.6s5.5-3.9,8.4-2.1C191,266.6,192,270.4,190.2,273.4z"/>
		<path class="st4" d="M178.8,292.9c-1.7,3-5.5,3.9-8.4,2.1c-2.9-1.8-3.8-5.6-2.1-8.6s5.5-3.9,8.4-2.1S180.5,289.9,178.8,292.9z"/>
	</g>
	<g>
		<path class="st4" d="M-28,404.6c-1.7,3-5.5,3.9-8.4,2.1s-3.8-5.6-2.1-8.6c1.7-3,5.5-3.9,8.4-2.1S-26.3,401.7-28,404.6z"/>
		<path class="st4" d="M-39.5,424.1c-1.7,3-5.5,3.9-8.4,2.1c-2.9-1.8-3.8-5.6-2.1-8.6c1.7-3,5.5-3.9,8.4-2.1
			C-38.7,417.3-37.7,421.2-39.5,424.1z"/>
		<path class="st4" d="M-50.9,443.6c-1.7,3-5.5,3.9-8.4,2.1s-3.8-5.6-2.1-8.6s5.5-3.9,8.4-2.1S-49.2,440.6-50.9,443.6z"/>
		<path class="st4" d="M-62.4,463.1c-1.7,3-5.5,3.9-8.4,2.1c-2.9-1.8-3.8-5.6-2.1-8.6c1.7-3,5.5-3.9,8.4-2.1
			C-61.6,456.3-60.7,460.1-62.4,463.1z"/>
		<path class="st4" d="M17.8,326.7c-1.7,3-5.5,3.9-8.4,2.1s-3.8-5.6-2.1-8.6s5.5-3.9,8.4-2.1C18.6,319.9,19.6,323.8,17.8,326.7z"/>
		<path class="st4" d="M6.4,346.2c-1.7,3-5.5,3.9-8.4,2.1s-3.8-5.6-2.1-8.6c1.7-3,5.5-3.9,8.4-2.1S8.1,343.2,6.4,346.2z"/>
		<path class="st4" d="M-5.1,365.7c-1.7,3-5.5,3.9-8.4,2.1c-2.9-1.8-3.8-5.6-2.1-8.6c1.7-3,5.5-3.9,8.4-2.1S-3.4,362.7-5.1,365.7z"
			/>
		<path class="st4" d="M-16.6,385.1c-1.7,3-5.5,3.9-8.4,2.1s-3.8-5.6-2.1-8.6c1.7-3,5.5-3.9,8.4-2.1
			C-15.8,378.4-14.8,382.2-16.6,385.1z"/>
		<path class="st4" d="M63.7,248.8c-1.7,3-5.5,3.9-8.4,2.1c-2.9-1.8-3.8-5.6-2.1-8.6c1.7-3,5.5-3.9,8.4-2.1
			C64.5,242,65.4,245.8,63.7,248.8z"/>
		<path class="st4" d="M52.2,268.3c-1.7,3-5.5,3.9-8.4,2.1s-3.8-5.6-2.1-8.6c1.7-3,5.5-3.9,8.4-2.1C53,261.5,53.9,265.3,52.2,268.3z
			"/>
		<path class="st4" d="M40.7,287.7c-1.7,3-5.5,3.9-8.4,2.1c-2.9-1.8-3.8-5.6-2.1-8.6c1.7-3,5.5-3.9,8.4-2.1
			C41.5,281,42.5,284.8,40.7,287.7z"/>
		<path class="st4" d="M29.3,307.2c-1.7,3-5.5,3.9-8.4,2.1c-2.9-1.8-3.8-5.6-2.1-8.6c1.7-3,5.5-3.9,8.4-2.1S31,304.3,29.3,307.2z"/>
		<path class="st4" d="M109.5,170.9c-1.7,3-5.5,3.9-8.4,2.1c-2.9-1.8-3.8-5.6-2.1-8.6c1.7-3,5.5-3.9,8.4-2.1
			C110.3,164.1,111.2,167.9,109.5,170.9z"/>
		<path class="st4" d="M98,190.3c-1.7,3-5.5,3.9-8.4,2.1c-2.9-1.8-3.8-5.6-2.1-8.6c1.7-3,5.5-3.9,8.4-2.1
			C98.8,183.6,99.8,187.4,98,190.3z"/>
		<path class="st4" d="M86.6,209.8c-1.7,3-5.5,3.9-8.4,2.1c-2.9-1.8-3.8-5.6-2.1-8.6c1.7-3,5.5-3.9,8.4-2.1
			C87.4,203,88.3,206.9,86.6,209.8z"/>
		<path class="st4" d="M75.1,229.3c-1.7,3-5.5,3.9-8.4,2.1c-2.9-1.8-3.8-5.6-2.1-8.6c1.7-3,5.5-3.9,8.4-2.1
			C75.9,222.5,76.9,226.4,75.1,229.3z"/>
		<path class="st4" d="M-7.3,417.3c-1.7,3-5.5,3.9-8.4,2.1s-3.8-5.6-2.1-8.6c1.7-3,5.5-3.9,8.4-2.1C-6.5,410.6-5.6,414.4-7.3,417.3z
			"/>
		<path class="st4" d="M-18.8,436.8c-1.7,3-5.5,3.9-8.4,2.1s-3.8-5.6-2.1-8.6c1.7-3,5.5-3.9,8.4-2.1S-17.1,433.9-18.8,436.8z"/>
		<path class="st4" d="M-30.3,456.3c-1.7,3-5.5,3.9-8.4,2.1c-2.9-1.8-3.8-5.6-2.1-8.6c1.7-3,5.5-3.9,8.4-2.1S-28.5,453.3-30.3,456.3
			z"/>
		<path class="st4" d="M-41.7,475.8c-1.7,3-5.5,3.9-8.4,2.1c-2.9-1.8-3.8-5.6-2.1-8.6s5.5-3.9,8.4-2.1
			C-40.9,469-40,472.8-41.7,475.8z"/>
		<path class="st4" d="M38.5,339.4c-1.7,3-5.5,3.9-8.4,2.1c-2.9-1.8-3.8-5.6-2.1-8.6c1.7-3,5.5-3.9,8.4-2.1
			C39.3,332.6,40.2,336.5,38.5,339.4z"/>
		<path class="st4" d="M27,358.9c-1.7,3-5.5,3.9-8.4,2.1s-3.8-5.6-2.1-8.6c1.7-3,5.5-3.9,8.4-2.1C27.8,352.1,28.8,355.9,27,358.9z"
			/>
		<path class="st4" d="M15.6,378.4c-1.7,3-5.5,3.9-8.4,2.1s-3.8-5.6-2.1-8.6c1.7-3,5.5-3.9,8.4-2.1S17.3,375.4,15.6,378.4z"/>
		<path class="st4" d="M4.1,397.9c-1.7,3-5.5,3.9-8.4,2.1c-2.9-1.8-3.8-5.6-2.1-8.6s5.5-3.9,8.4-2.1S5.9,394.9,4.1,397.9z"/>
		<path class="st4" d="M84.3,261.5c-1.7,3-5.5,3.9-8.4,2.1c-2.9-1.8-3.8-5.6-2.1-8.6c1.7-3,5.5-3.9,8.4-2.1
			C85.1,254.7,86.1,258.5,84.3,261.5z"/>
		<path class="st4" d="M72.9,281c-1.7,3-5.5,3.9-8.4,2.1c-2.9-1.8-3.8-5.6-2.1-8.6c1.7-3,5.5-3.9,8.4-2.1
			C73.7,274.2,74.6,278,72.9,281z"/>
		<path class="st4" d="M61.4,300.5c-1.7,3-5.5,3.9-8.4,2.1c-2.9-1.8-3.8-5.6-2.1-8.6s5.5-3.9,8.4-2.1
			C62.2,293.7,63.2,297.5,61.4,300.5z"/>
		<path class="st4" d="M50,319.9c-1.7,3-5.5,3.9-8.4,2.1s-3.8-5.6-2.1-8.6c1.7-3,5.5-3.9,8.4-2.1S51.7,317,50,319.9z"/>
		<path class="st4" d="M130.2,183.6c-1.7,3-5.5,3.9-8.4,2.1c-2.9-1.8-3.8-5.6-2.1-8.6c1.7-3,5.5-3.9,8.4-2.1
			C131,176.8,131.9,180.6,130.2,183.6z"/>
		<path class="st4" d="M118.7,203.1c-1.7,3-5.5,3.9-8.4,2.1c-2.9-1.8-3.8-5.6-2.1-8.6c1.7-3,5.5-3.9,8.4-2.1
			C119.5,196.3,120.5,200.1,118.7,203.1z"/>
		<path class="st4" d="M107.3,222.5c-1.7,3-5.5,3.9-8.4,2.1c-2.9-1.8-3.8-5.6-2.1-8.6c1.7-3,5.5-3.9,8.4-2.1
			C108.1,215.8,109,219.6,107.3,222.5z"/>
		<path class="st4" d="M95.8,242c-1.7,3-5.5,3.9-8.4,2.1c-2.9-1.8-3.8-5.6-2.1-8.6c1.7-3,5.5-3.9,8.4-2.1
			C96.6,235.2,97.5,239.1,95.8,242z"/>
		<path class="st4" d="M13,430.2c-1.7,3-5.5,3.9-8.4,2.1s-3.8-5.6-2.1-8.6c1.7-3,5.5-3.9,8.4-2.1S14.8,427.2,13,430.2z"/>
		<path class="st4" d="M1.6,449.6c-1.7,3-5.5,3.9-8.4,2.1c-2.9-1.8-3.8-5.6-2.1-8.6c1.7-3,5.5-3.9,8.4-2.1S3.3,446.7,1.6,449.6z"/>
		<path class="st4" d="M-9.9,469.1c-1.7,3-5.5,3.9-8.4,2.1s-3.8-5.6-2.1-8.6c1.7-3,5.5-3.9,8.4-2.1C-9.1,462.3-8.2,466.2-9.9,469.1z
			"/>
		<path class="st4" d="M-21.4,488.6c-1.7,3-5.5,3.9-8.4,2.1s-3.8-5.6-2.1-8.6c1.7-3,5.5-3.9,8.4-2.1S-19.6,485.7-21.4,488.6z"/>
		<path class="st4" d="M58.9,352.2c-1.7,3-5.5,3.9-8.4,2.1s-3.8-5.6-2.1-8.6s5.5-3.9,8.4-2.1C59.7,345.5,60.6,349.3,58.9,352.2z"/>
		<path class="st4" d="M47.4,371.7c-1.7,3-5.5,3.9-8.4,2.1c-2.9-1.8-3.8-5.6-2.1-8.6c1.7-3,5.5-3.9,8.4-2.1
			C48.2,364.9,49.1,368.8,47.4,371.7z"/>
		<path class="st4" d="M36,391.2c-1.7,3-5.5,3.9-8.4,2.1c-2.9-1.8-3.8-5.6-2.1-8.6s5.5-3.9,8.4-2.1S37.7,388.3,36,391.2z"/>
		<path class="st4" d="M24.5,410.7c-1.7,3-5.5,3.9-8.4,2.1s-3.8-5.6-2.1-8.6s5.5-3.9,8.4-2.1C25.3,403.9,26.2,407.7,24.5,410.7z"/>
		<path class="st4" d="M104.7,274.3c-1.7,3-5.5,3.9-8.4,2.1s-3.8-5.6-2.1-8.6c1.7-3,5.5-3.9,8.4-2.1S106.4,271.4,104.7,274.3z"/>
		<path class="st4" d="M93.3,293.8c-1.7,3-5.5,3.9-8.4,2.1c-2.9-1.8-3.8-5.6-2.1-8.6c1.7-3,5.5-3.9,8.4-2.1
			C94,287,95,290.9,93.3,293.8z"/>
		<path class="st4" d="M81.8,313.3c-1.7,3-5.5,3.9-8.4,2.1c-2.9-1.8-3.8-5.6-2.1-8.6c1.7-3,5.5-3.9,8.4-2.1
			C82.6,306.5,83.5,310.3,81.8,313.3z"/>
		<path class="st4" d="M70.3,332.8c-1.7,3-5.5,3.9-8.4,2.1c-2.9-1.8-3.8-5.6-2.1-8.6c1.7-3,5.5-3.9,8.4-2.1
			C71.1,326,72.1,329.8,70.3,332.8z"/>
		<path class="st4" d="M150.6,196.4c-1.7,3-5.5,3.9-8.4,2.1c-2.9-1.8-3.8-5.6-2.1-8.6c1.7-3,5.5-3.9,8.4-2.1
			S152.3,193.5,150.6,196.4z"/>
		<path class="st4" d="M139.1,215.9c-1.7,3-5.5,3.9-8.4,2.1c-2.9-1.8-3.8-5.6-2.1-8.6c1.7-3,5.5-3.9,8.4-2.1
			S140.8,212.9,139.1,215.9z"/>
		<path class="st4" d="M127.6,235.4c-1.7,3-5.5,3.9-8.4,2.1c-2.9-1.8-3.8-5.6-2.1-8.6c1.7-3,5.5-3.9,8.4-2.1
			C128.4,228.6,129.4,232.4,127.6,235.4z"/>
		<path class="st4" d="M116.2,254.8c-1.7,3-5.5,3.9-8.4,2.1c-2.9-1.8-3.8-5.6-2.1-8.6c1.7-3,5.5-3.9,8.4-2.1
			C117,248.1,117.9,251.9,116.2,254.8z"/>
		<path class="st4" d="M33.7,442.9c-1.7,3-5.5,3.9-8.4,2.1s-3.8-5.6-2.1-8.6c1.7-3,5.5-3.9,8.4-2.1
			C34.5,436.1,35.5,439.9,33.7,442.9z"/>
		<path class="st4" d="M22.3,462.4c-1.7,3-5.5,3.9-8.4,2.1s-3.8-5.6-2.1-8.6c1.7-3,5.5-3.9,8.4-2.1S24,459.4,22.3,462.4z"/>
		<path class="st4" d="M10.8,481.8c-1.7,3-5.5,3.9-8.4,2.1c-2.9-1.8-3.8-5.6-2.1-8.6c1.7-3,5.5-3.9,8.4-2.1S12.5,478.9,10.8,481.8z"
			/>
		<path class="st4" d="M-0.7,501.3c-1.7,3-5.5,3.9-8.4,2.1s-3.8-5.6-2.1-8.6s5.5-3.9,8.4-2.1C0.1,494.5,1.1,498.4-0.7,501.3z"/>
		<path class="st4" d="M79.6,365c-1.7,3-5.5,3.9-8.4,2.1s-3.8-5.6-2.1-8.6c1.7-3,5.5-3.9,8.4-2.1S81.3,362,79.6,365z"/>
		<path class="st4" d="M68.1,384.4c-1.7,3-5.5,3.9-8.4,2.1c-2.9-1.8-3.8-5.6-2.1-8.6s5.5-3.9,8.4-2.1
			C68.9,377.7,69.8,381.5,68.1,384.4z"/>
		<path class="st4" d="M56.6,403.9c-1.7,3-5.5,3.9-8.4,2.1s-3.8-5.6-2.1-8.6c1.7-3,5.5-3.9,8.4-2.1S58.4,401,56.6,403.9z"/>
		<path class="st4" d="M45.2,423.4c-1.7,3-5.5,3.9-8.4,2.1c-2.9-1.8-3.8-5.6-2.1-8.6c1.7-3,5.5-3.9,8.4-2.1
			C46,416.6,46.9,420.4,45.2,423.4z"/>
		<path class="st4" d="M125.4,287c-1.7,3-5.5,3.9-8.4,2.1c-2.9-1.8-3.8-5.6-2.1-8.6c1.7-3,5.5-3.9,8.4-2.1
			C126.2,280.3,127.1,284.1,125.4,287z"/>
		<path class="st4" d="M113.9,306.5c-1.7,3-5.5,3.9-8.4,2.1s-3.8-5.6-2.1-8.6c1.7-3,5.5-3.9,8.4-2.1
			C114.7,299.7,115.7,303.6,113.9,306.5z"/>
		<path class="st4" d="M102.5,326c-1.7,3-5.5,3.9-8.4,2.1c-2.9-1.8-3.8-5.6-2.1-8.6c1.7-3,5.5-3.9,8.4-2.1
			C103.3,319.2,104.2,323.1,102.5,326z"/>
		<path class="st4" d="M91,345.5c-1.7,3-5.5,3.9-8.4,2.1c-2.9-1.8-3.8-5.6-2.1-8.6c1.7-3,5.5-3.9,8.4-2.1
			C91.8,338.7,92.8,342.5,91,345.5z"/>
		<path class="st4" d="M171.2,209.1c-1.7,3-5.5,3.9-8.4,2.1c-2.9-1.8-3.8-5.6-2.1-8.6c1.7-3,5.5-3.9,8.4-2.1
			C172,202.3,173,206.2,171.2,209.1z"/>
		<path class="st4" d="M159.8,228.6c-1.7,3-5.5,3.9-8.4,2.1s-3.8-5.6-2.1-8.6c1.7-3,5.5-3.9,8.4-2.1
			C160.6,221.8,161.5,225.7,159.8,228.6z"/>
		<path class="st4" d="M148.3,248.1c-1.7,3-5.5,3.9-8.4,2.1c-2.9-1.8-3.8-5.6-2.1-8.6c1.7-3,5.5-3.9,8.4-2.1
			C149.1,241.3,150.1,245.1,148.3,248.1z"/>
		<path class="st4" d="M136.9,267.6c-1.7,3-5.5,3.9-8.4,2.1c-2.9-1.8-3.8-5.6-2.1-8.6s5.5-3.9,8.4-2.1
			C137.7,260.8,138.6,264.6,136.9,267.6z"/>
		<path class="st4" d="M-69.3,379.8c-1.7,3-5.5,3.9-8.4,2.1c-2.9-1.8-3.8-5.6-2.1-8.6c1.7-3,5.5-3.9,8.4-2.1
			C-68.5,373-67.6,376.9-69.3,379.8z"/>
		<path class="st4" d="M-80.8,399.3c-1.7,3-5.5,3.9-8.4,2.1c-2.9-1.8-3.8-5.6-2.1-8.6c1.7-3,5.5-3.9,8.4-2.1
			C-80,392.5-79.1,396.4-80.8,399.3z"/>
		<path class="st4" d="M-92.3,418.8c-1.7,3-5.5,3.9-8.4,2.1s-3.8-5.6-2.1-8.6c1.7-3,5.5-3.9,8.4-2.1
			C-91.5,412-90.5,415.8-92.3,418.8z"/>
		<path class="st4" d="M-103.7,438.3c-1.7,3-5.5,3.9-8.4,2.1c-2.9-1.8-3.8-5.6-2.1-8.6c1.7-3,5.5-3.9,8.4-2.1
			C-102.9,431.5-102,435.3-103.7,438.3z"/>
		<path class="st4" d="M-23.5,301.9c-1.7,3-5.5,3.9-8.4,2.1s-3.8-5.6-2.1-8.6s5.5-3.9,8.4-2.1C-22.7,295.1-21.8,299-23.5,301.9z"/>
		<path class="st4" d="M-35,321.4c-1.7,3-5.5,3.9-8.4,2.1s-3.8-5.6-2.1-8.6c1.7-3,5.5-3.9,8.4-2.1S-33.2,318.4-35,321.4z"/>
		<path class="st4" d="M-46.4,340.9c-1.7,3-5.5,3.9-8.4,2.1c-2.9-1.8-3.8-5.6-2.1-8.6c1.7-3,5.5-3.9,8.4-2.1
			C-45.6,334.1-44.7,337.9-46.4,340.9z"/>
		<path class="st4" d="M-57.9,360.3c-1.7,3-5.5,3.9-8.4,2.1c-2.9-1.8-3.8-5.6-2.1-8.6c1.7-3,5.5-3.9,8.4-2.1
			C-57.1,353.6-56.1,357.4-57.9,360.3z"/>
		<path class="st4" d="M22.3,224c-1.7,3-5.5,3.9-8.4,2.1c-2.9-1.8-3.8-5.6-2.1-8.6c1.7-3,5.5-3.9,8.4-2.1
			C23.1,217.2,24.1,221,22.3,224z"/>
		<path class="st4" d="M10.9,243.5c-1.7,3-5.5,3.9-8.4,2.1s-3.8-5.6-2.1-8.6c1.7-3,5.5-3.9,8.4-2.1S12.6,240.5,10.9,243.5z"/>
		<path class="st4" d="M-0.6,262.9c-1.7,3-5.5,3.9-8.4,2.1s-3.8-5.6-2.1-8.6c1.7-3,5.5-3.9,8.4-2.1C0.2,256.2,1.2,260-0.6,262.9z"/>
		<path class="st4" d="M-12,282.4c-1.7,3-5.5,3.9-8.4,2.1c-2.9-1.8-3.8-5.6-2.1-8.6c1.7-3,5.5-3.9,8.4-2.1S-10.3,279.5-12,282.4z"/>
		<path class="st4" d="M68.2,146.1c-1.7,3-5.5,3.9-8.4,2.1c-2.9-1.8-3.8-5.6-2.1-8.6c1.7-3,5.5-3.9,8.4-2.1
			C69,139.3,69.9,143.1,68.2,146.1z"/>
		<path class="st4" d="M56.7,165.5c-1.7,3-5.5,3.9-8.4,2.1c-2.9-1.8-3.8-5.6-2.1-8.6c1.7-3,5.5-3.9,8.4-2.1
			C57.5,158.8,58.5,162.6,56.7,165.5z"/>
		<path class="st4" d="M45.3,185c-1.7,3-5.5,3.9-8.4,2.1s-3.8-5.6-2.1-8.6c1.7-3,5.5-3.9,8.4-2.1C46.1,178.2,47,182.1,45.3,185z"/>
		<path class="st4" d="M33.8,204.5c-1.7,3-5.5,3.9-8.4,2.1c-2.9-1.8-3.8-5.6-2.1-8.6c1.7-3,5.5-3.9,8.4-2.1S35.5,201.6,33.8,204.5z"
			/>
		<path class="st4" d="M-48.6,392.5c-1.7,3-5.5,3.9-8.4,2.1c-2.9-1.8-3.8-5.6-2.1-8.6s5.5-3.9,8.4-2.1
			C-47.8,385.8-46.9,389.6-48.6,392.5z"/>
		<path class="st4" d="M-60.1,412c-1.7,3-5.5,3.9-8.4,2.1c-2.9-1.8-3.8-5.6-2.1-8.6c1.7-3,5.5-3.9,8.4-2.1S-58.4,409.1-60.1,412z"/>
		<path class="st4" d="M-71.6,431.5c-1.7,3-5.5,3.9-8.4,2.1c-2.9-1.8-3.8-5.6-2.1-8.6c1.7-3,5.5-3.9,8.4-2.1
			C-70.8,424.7-69.8,428.5-71.6,431.5z"/>
		<path class="st4" d="M-83,451c-1.7,3-5.5,3.9-8.4,2.1s-3.8-5.6-2.1-8.6c1.7-3,5.5-3.9,8.4-2.1S-81.3,448-83,451z"/>
		<path class="st4" d="M-2.8,314.6c-1.7,3-5.5,3.9-8.4,2.1c-2.9-1.8-3.8-5.6-2.1-8.6s5.5-3.9,8.4-2.1S-1.1,311.7-2.8,314.6z"/>
		<path class="st4" d="M-14.3,334.1c-1.7,3-5.5,3.9-8.4,2.1s-3.8-5.6-2.1-8.6c1.7-3,5.5-3.9,8.4-2.1
			C-13.5,327.3-12.5,331.1-14.3,334.1z"/>
		<path class="st4" d="M-25.7,353.6c-1.7,3-5.5,3.9-8.4,2.1s-3.8-5.6-2.1-8.6c1.7-3,5.5-3.9,8.4-2.1S-24,350.6-25.7,353.6z"/>
		<path class="st4" d="M-37.2,373.1c-1.7,3-5.5,3.9-8.4,2.1c-2.9-1.8-3.8-5.6-2.1-8.6c1.7-3,5.5-3.9,8.4-2.1
			C-36.4,366.3-35.4,370.1-37.2,373.1z"/>
		<path class="st4" d="M43,236.7c-1.7,3-5.5,3.9-8.4,2.1c-2.9-1.8-3.8-5.6-2.1-8.6c1.7-3,5.5-3.9,8.4-2.1
			C43.8,229.9,44.8,233.8,43,236.7z"/>
		<path class="st4" d="M31.6,256.2c-1.7,3-5.5,3.9-8.4,2.1s-3.8-5.6-2.1-8.6c1.7-3,5.5-3.9,8.4-2.1
			C32.4,249.4,33.3,253.2,31.6,256.2z"/>
		<path class="st4" d="M20.1,275.7c-1.7,3-5.5,3.9-8.4,2.1s-3.8-5.6-2.1-8.6s5.5-3.9,8.4-2.1C20.9,268.9,21.9,272.7,20.1,275.7z"/>
		<path class="st4" d="M8.7,295.1c-1.7,3-5.5,3.9-8.4,2.1s-3.8-5.6-2.1-8.6c1.7-3,5.5-3.9,8.4-2.1S10.4,292.2,8.7,295.1z"/>
		<path class="st4" d="M88.9,158.8c-1.7,3-5.5,3.9-8.4,2.1c-2.9-1.8-3.8-5.6-2.1-8.6c1.7-3,5.5-3.9,8.4-2.1
			C89.7,152,90.6,155.8,88.9,158.8z"/>
		<path class="st4" d="M77.4,178.3c-1.7,3-5.5,3.9-8.4,2.1s-3.8-5.6-2.1-8.6c1.7-3,5.5-3.9,8.4-2.1S79.2,175.3,77.4,178.3z"/>
		<path class="st4" d="M66,197.7c-1.7,3-5.5,3.9-8.4,2.1c-2.9-1.8-3.8-5.6-2.1-8.6c1.7-3,5.5-3.9,8.4-2.1
			C66.8,191,67.7,194.8,66,197.7z"/>
		<path class="st4" d="M54.5,217.2c-1.7,3-5.5,3.9-8.4,2.1s-3.8-5.6-2.1-8.6c1.7-3,5.5-3.9,8.4-2.1
			C55.3,210.4,56.2,214.3,54.5,217.2z"/>
	</g>
</g>
<path class="st5" d="M267-482c-46-25,457.2,231.2,284,358s115.5,78.7,112.3,84.4c-4,7.2-5.3,15.1-5.5,22.6
	c-0.6,18,4.3,34.7,11.3,49.9c23.5,50.7,70.1,84.9,121.4,108.1s108,36.6,162,54.9c8.4,2.8,18.1,8.8,14.7,18.2
	c-2.5,7-10.9,10.7-18,13.2c-21.7,7.6-43.3,15.1-65,22.7c-15,5.3-32.8,13.1-37.7,28.1c-2.3,6.8-1.1,13.7,1.2,19.6
	c10.2,26.5,40.3,36.9,67.9,45.3c47,14.3,94,28.5,141.1,42.8"/>
<rect x="-264.7" y="-388.1" class="st6" width="1580" height="1208.7"/>
</svg>
